PathFileType	4	(X/Y/Z)	C:/Users/opensim2020/Desktop/walking_exp_matlab/subject01_walking13_straight_02.trc	
DataRate	CameraRate	NumFrames	NumMarkers	Units	OrigDataRate	OrigDataStartFrame	OrigNumFrames	
100.00	100.00	5	42	mm	100.00	1196	172	
Frame#	Time	LFHD			RFHD			LBHD			RBHD			C7			T10			CLAV			STRN			RBAK			LSHO			LUPA			LELB			LFRM			LWRA			LWRB			LFIN			RSHO			RUPA			RELB			RFRM			RWRA			RWRB			RFIN			LASI			RASI			LPSI			RPSI			LTHI			LKNE			LTIB			LANK			LHEE			LTOE			RTHI			RKNE			RTIB			RANK			RHEE			RTOE			*39			*40			*41			
		X1	Y1	Z1	X2	Y2	Z2	X3	Y3	Z3	X4	Y4	Z4	X5	Y5	Z5	X6	Y6	Z6	X7	Y7	Z7	X8	Y8	Z8	X9	Y9	Z9	X10	Y10	Z10	X11	Y11	Z11	X12	Y12	Z12	X13	Y13	Z13	X14	Y14	Z14	X15	Y15	Z15	X16	Y16	Z16	X17	Y17	Z17	X18	Y18	Z18	X19	Y19	Z19	X20	Y20	Z20	X21	Y21	Z21	X22	Y22	Z22	X23	Y23	Z23	X24	Y24	Z24	X25	Y25	Z25	X26	Y26	Z26	X27	Y27	Z27	X28	Y28	Z28	X29	Y29	Z29	X30	Y30	Z30	X31	Y31	Z31	X32	Y32	Z32	X33	Y33	Z33	X34	Y34	Z34	X35	Y35	Z35	X36	Y36	Z36	X37	Y37	Z37	X38	Y38	Z38	X39	Y39	Z39	X40	Y40	Z40	X41	Y41	Z41	X42	Y42	Z42	

108	1.070	1569.87732	-123.22041	1650.67957	1456.88086	-132.92653	1657.87598	1565.32532	-5.44650	1610.33850	1444.61804	-12.68923	1616.99280	1509.01611	40.68353	1418.00562	1481.94958	78.61819	1124.27942	1509.49060	-102.72984	1347.86755	1507.19153	-146.24857	1194.63330	1418.08984	94.73679	1227.27759	1669.92957	-34.18077	1368.40649	1745.68079	20.33418	1189.43896	1743.34497	55.19114	1040.29565	1760.90063	20.83809	928.73688	1735.17346	-55.67142	813.44818	1758.08691	0.46200	808.69672	1768.79492	-43.75356	739.19800	1356.52051	-44.44172	1384.76355	1243.55554	23.95709	1196.48633	1232.42969	28.23008	1068.03223	1218.04822	-40.72171	961.57092	1262.00769	-153.48149	889.01715	1217.99634	-121.66388	869.23151	1226.32483	-189.62221	822.99017	1591.01575	-102.42896	926.50110	1373.46802	-99.22196	916.12262	1540.78528	84.82648	929.32178	1396.78015	83.70454	921.71912	1648.10901	-122.38073	599.99707	1626.88977	-139.13673	466.45251	1631.68445	-87.61731	282.84659	1573.82251	-54.44659	69.38036	1519.44812	-10.31952	40.97712	1583.84375	-201.10722	32.23936	1312.53333	-80.59238	576.63867	1326.86890	-91.44670	420.53641	1317.69165	66.24409	344.74609	1359.02039	242.39107	240.19901	1415.31201	291.44675	261.31421	1353.47681	234.36514	95.39940	1480.88721	-122.74426	1691.04370	-3102.17725	1973.09387	1023.95154	-3140.75635	2012.50305	1022.05518 
109	1.080	1570.78247	-136.79358	1651.84521	1457.71899	-145.95251	1659.12585	1566.78979	-18.76350	1612.19812	1446.05090	-25.40048	1618.96326	1510.30225	28.48186	1419.67188	1483.39270	66.66743	1125.94519	1510.13489	-114.94556	1349.50464	1507.88220	-158.23131	1196.19006	1419.75952	82.88620	1228.83752	1670.77917	-46.99884	1370.02380	1747.28650	4.83293	1190.75635	1746.31140	37.30553	1040.89331	1764.06543	-0.34244	930.40686	1738.44324	-79.85387	817.22113	1761.73303	-24.01568	810.96094	1772.52612	-70.22398	742.89056	1357.19800	-56.20980	1386.36951	1244.74048	13.03842	1198.13940	1233.97131	17.88887	1069.74158	1218.58228	-47.60576	961.54224	1261.35254	-158.69472	885.69287	1217.43164	-126.13441	866.90723	1225.05664	-192.93085	818.83746	1592.79456	-115.26134	928.03198	1374.76831	-111.71059	918.35272	1541.64978	72.93798	930.89056	1397.41919	71.01665	923.60736	1648.52124	-129.71201	599.85571	1627.27454	-143.35025	465.74228	1632.07410	-89.90163	282.58560	1573.85828	-54.76925	69.52206	1519.34192	-10.48880	41.46996	1584.00049	-201.17076	32.18655	1314.81165	-101.03241	579.49255	1329.68005	-116.32510	423.87860	1321.35291	40.25885	346.49167	1362.47253	215.45656	240.10876	1418.04761	266.39810	259.44525	1356.66052	200.63127	96.38837	1481.78845	-136.08220	1692.31445	-3101.89429	1973.07520	1023.46643	-3140.55835	2012.51147	1022.02881 
110	1.090	1571.42871	-150.32146	1652.95837	1458.35950	-158.96954	1660.24670	1568.06262	-32.03234	1614.06714	1447.34460	-38.06137	1620.91162	1511.66260	16.57607	1421.52954	1484.67212	54.74665	1127.48315	1510.80774	-127.02631	1351.08643	1508.55786	-170.06613	1197.69031	1421.21143	71.13128	1230.39380	1671.58557	-59.61041	1371.70850	1748.87134	-10.48421	1192.14697	1749.20679	19.54167	1041.70337	1767.15271	-21.30564	932.37415	1741.61938	-104.01888	821.38361	1765.28406	-48.61219	813.72760	1776.23267	-96.96281	747.14758	1358.70471	-66.57703	1388.26794	1245.97131	2.31896	1199.81812	1235.46082	7.60932	1071.52466	1219.10193	-54.78288	961.66846	1260.35608	-164.22803	882.72327	1216.88977	-130.52238	864.84576	1223.65906	-195.98886	814.75330	1594.09570	-125.42868	928.57294	1376.30261	-123.59933	920.29517	1542.41089	61.14213	932.49567	1398.19263	58.84449	925.87299	1648.75269	-136.81943	599.72992	1627.76489	-147.38908	465.26971	1632.28748	-91.95383	282.32886	1573.84241	-55.16468	69.77861	1519.31738	-10.59791	42.06516	1584.13696	-201.26913	32.06881	1316.97253	-121.15323	582.77014	1332.45410	-140.69870	427.35431	1324.52563	14.52284	348.29077	1365.72913	187.79878	238.43442	1420.77295	240.96414	255.87080	1360.27307	165.57307	96.09135	1482.51355	-149.45128	1693.52478	-3102.20923	1973.04089	1023.97900	-3140.68799	2012.57544	1022.00903 
111	1.100	1571.88892	-163.89444	1654.03137	1458.76587	-171.89726	1661.26794	1569.19128	-45.29023	1615.94812	1448.40686	-50.71530	1622.72412	1512.66919	4.29126	1422.74243	1485.90967	42.83361	1128.98108	1511.47314	-139.12569	1352.70947	1509.21313	-181.86781	1199.12769	1422.47241	59.41877	1231.94165	1672.32153	-72.16935	1373.39966	1750.40027	-25.59082	1193.63770	1752.00903	1.98145	1042.62085	1770.14502	-42.22330	934.63885	1744.88831	-128.30890	826.21948	1768.58521	-73.30297	816.88007	1779.93738	-123.81676	752.04816	1359.20276	-78.43597	1389.66187	1247.11548	-8.36974	1201.41504	1236.90308	-2.51252	1073.26514	1219.51099	-61.83371	961.98303	1259.36169	-169.17528	879.62903	1216.02417	-134.71332	862.89099	1222.18176	-198.75827	810.82892	1595.52002	-137.06110	929.75922	1377.89917	-135.75040	922.22839	1543.09473	49.41841	934.08411	1398.66870	46.39706	928.14648	1649.15308	-144.06792	600.12860	1628.19141	-151.24622	465.02319	1632.35034	-93.86536	282.38718	1573.73364	-55.55118	70.11652	1519.31067	-10.61649	42.89814	1584.25415	-201.43089	32.07799	1319.27905	-140.87962	585.86639	1335.41870	-164.69382	431.44385	1327.99854	-10.87949	349.90790	1369.15442	159.52527	235.25076	1423.17456	214.79964	250.59985	1364.41809	130.05792	94.47788	1482.93958	-162.71162	1694.59387	-3102.13013	1973.00610	1023.95435	-3140.70703	2012.53198	1022.06818 
112	1.110	1572.17676	-177.32584	1655.06897	1458.95703	-184.77483	1662.17468	1570.12244	-58.49717	1617.78369	1449.33948	-63.31588	1624.45752	1513.76086	-7.51068	1424.15857	1487.13953	30.91928	1130.33069	1512.11584	-151.02608	1354.18091	1509.91394	-193.63782	1200.53943	1423.53162	47.73075	1233.35522	1673.02063	-84.56856	1375.16052	1751.93494	-40.43683	1195.15454	1754.81152	-15.45840	1043.71777	1773.10242	-63.06639	937.10712	1747.96399	-152.61794	831.47540	1771.82104	-97.93887	820.48950	1783.58972	-150.71027	757.59406	1360.04224	-89.83964	1391.02954	1248.26331	-19.00815	1202.91248	1238.29407	-12.47827	1074.94580	1219.77209	-68.83356	962.29956	1258.28308	-174.01926	876.58887	1215.06677	-138.82599	861.05847	1220.63367	-201.38168	807.12494	1596.92603	-148.60995	931.02502	1379.63306	-148.03998	924.24725	1543.59949	37.71866	935.63062	1398.99731	33.84734	930.16187	1649.35339	-150.60968	600.25439	1628.54053	-154.87430	464.82086	1632.48962	-95.85300	282.66965	1573.59961	-55.80523	70.58854	1519.02051	-10.87950	43.55359	1584.39856	-201.62009	32.05891	1321.28479	-160.62413	589.02252	1338.05005	-188.05008	435.53186	1331.44177	-35.97814	351.18716	1372.24292	130.82967	230.80180	1425.62524	187.78763	243.69421	1368.61328	93.79736	92.11314	1483.23267	-176.04170	1695.65686	-3102.02856	1973.06458	1023.34686	-3140.74146	2012.43652	1022.00366 
